<svg width="24" height="26" fill="none" xmlns="http://www.w3.org/2000/svg"><path d="M6.982 4.995h-.046v5.996c0 .5.412.91.915.91h.789v2.089c0 .502.41.909.914.909a.912.912 0 00.915-.91V11.9H11.7v2.09c0 .502.41.909.915.909a.912.912 0 00.914-.91V11.9h.769c.503 0 .914-.41.914-.91V4.996h-8.23zm1.822-2.16a.388.388 0 00.777 0 .388.388 0 00-.389-.386.388.388 0 00-.388.386zm3.765 0a.388.388 0 00.777 0 .388.388 0 00-.389-.386.388.388 0 00-.388.386zM6.947 4.677a3.215 3.215 0 01.1-.936c.256-1.005.98-1.854 1.958-2.358L8.37.218a.147.147 0 01.06-.2.15.15 0 01.201.06l.643 1.178a4.562 4.562 0 011.808-.368c.644 0 1.253.13 1.797.363l.64-1.174a.149.149 0 01.2-.06.148.148 0 01.06.201l-.631 1.159c1.026.524 1.774 1.428 2 2.494.027.12.045.243.057.368v.438H6.947zm10.418 1.069c0-.502-.41-.91-.915-.91a.912.912 0 00-.914.91v3.82c0 .502.41.91.914.91a.912.912 0 00.915-.91v-3.82zm-10.756 0v3.82c0 .502-.41.91-.915.91a.912.912 0 01-.914-.91v-3.82c0-.502.41-.91.914-.91.505 0 .915.408.915.91zm16.405 11.163h-1.18l-2.563 6.104h.524l-2.556-6.097h-1.216l2.899 6.688-.23.52c-.26.577-.748.827-1.216.827h-.384V26h.37c1.04 0 1.865-.556 2.305-1.611l3.247-7.48zm-7.62 6.952v-6.945h-1.047v.791c-.586-.583-1.396-.93-2.318-.93-1.998 0-3.569 1.61-3.569 3.604 0 2 1.571 3.619 3.569 3.619.922 0 1.732-.355 2.318-.931v.792h1.048zm-3.288-.875a2.598 2.598 0 01-2.591-2.605 2.596 2.596 0 012.59-2.597c.894 0 1.74.417 2.172 1.132.021.041.07.11.07.229v2.465a.417.417 0 01-.076.237 2.606 2.606 0 01-2.165 1.139zM1.867 25.944V23.07a3.251 3.251 0 002.319.938c1.99 0 3.569-1.619 3.569-3.612 0-2-1.579-3.618-3.569-3.618-.922 0-1.732.354-2.319.93v-.791H.82v9.028h1.047zm2.242-2.951c-.894 0-1.725-.424-2.172-1.132a.385.385 0 01-.07-.23v-2.493a.408.408 0 01.077-.23c.468-.694 1.271-1.117 2.165-1.117a2.596 2.596 0 012.584 2.604c0 1.43-1.16 2.598-2.584 2.598z" fill="#000"/></svg>