<svg width="29" height="35" fill="none" xmlns="http://www.w3.org/2000/svg"><path fill-rule="evenodd" clip-rule="evenodd" d="M7.762 6.128c0 .056.002.112.004.168h10.412v-.59a4.625 4.625 0 00-.072-.495c-.285-1.436-1.228-2.652-2.522-3.358l.796-1.56a.206.206 0 00-.076-.269.182.182 0 00-.254.08l-.806 1.58a5.44 5.44 0 00-2.264-.489 5.44 5.44 0 00-2.28.495L9.89.104a.182.182 0 00-.255-.08.205.205 0 00-.075.27l.8 1.567c-1.233.679-2.146 1.821-2.47 3.175a4.69 4.69 0 00-.128 1.092zm2.834-1.79c-.27 0-.49-.234-.49-.521 0-.287.22-.52.49-.52s.49.233.49.52c0 .287-.22.52-.49.52zM7.752 6.723h10.435v8.071c0 .674-.519 1.225-1.153 1.225h-.969v2.813c0 .675-.516 1.223-1.153 1.223-.636 0-1.153-.548-1.153-1.224V16.02h-1.553v2.814c0 .675-.517 1.223-1.153 1.223-.637 0-1.153-.548-1.153-1.224V16.02h-.995c-.634 0-1.153-.55-1.153-1.224v-8.07zm7.101-2.907c0 .287.22.52.49.52s.49-.233.49-.52c0-.287-.22-.52-.49-.52s-.49.233-.49.52zM20.9 7.734c0-.675-.516-1.223-1.153-1.223-.636 0-1.152.548-1.153 1.223v5.143c0 .676.517 1.224 1.153 1.224.637 0 1.153-.548 1.153-1.224V7.734zM7.34 12.877V7.734c0-.675-.517-1.223-1.154-1.223-.636 0-1.153.548-1.153 1.223v5.143c0 .676.517 1.224 1.153 1.224.637 0 1.153-.548 1.153-1.224zM1.361 34.925v-3.87a3.968 3.968 0 002.924 1.262c2.51 0 4.499-2.179 4.499-4.862 0-2.693-1.99-4.871-4.5-4.871a3.996 3.996 0 00-2.923 1.253v-1.066H.041v12.154h1.32zm17.056-2.805v-9.349h-1.321v1.066a3.96 3.96 0 00-2.923-1.253c-2.518 0-4.5 2.17-4.5 4.852 0 2.693 1.982 4.871 4.5 4.871a3.996 3.996 0 002.923-1.253v1.066h1.32zm9.606-9.358h-1.488l-2.901 7.378-2.893-7.369H19.21l3.654 9.004-.29.7c-.326.777-.942 1.113-1.532 1.113h-.485V35h.467c1.312 0 2.35-.748 2.905-2.169l4.095-10.07zm-17.02 4.674c0 1.936 1.461 3.506 3.266 3.506 1.127 0 2.14-.598 2.73-1.533a.587.587 0 00.097-.318v-3.319a.574.574 0 00-.075-.281l-.013-.027c-.546-.963-1.612-1.524-2.739-1.524-1.805 0-3.266 1.57-3.266 3.496zM1.45 29.428c.563.953 1.61 1.524 2.738 1.524 1.796 0 3.258-1.571 3.258-3.497 0-1.935-1.462-3.506-3.258-3.506-1.127 0-2.14.57-2.73 1.505a.572.572 0 00-.096.309v3.356c0 .16.052.253.088.309z" fill="#000"/></svg>