<svg width="52" height="26" fill="none" xmlns="http://www.w3.org/2000/svg"><path fill-rule="evenodd" clip-rule="evenodd" d="M10.804 3.748c.673-.813 1.126-1.945 1.002-3.071-.97.039-2.144.645-2.84 1.458-.623.72-1.17 1.871-1.022 2.975 1.082.083 2.186-.549 2.86-1.362zm2.426 7.147c.026 2.853 2.457 3.84 2.582 3.89l.004.003-.003.01c-.042.139-.43 1.412-1.33 2.725-.804 1.172-1.638 2.34-2.952 2.364-.63.012-1.052-.17-1.49-.36-.459-.198-.936-.404-1.69-.404-.79 0-1.29.212-1.77.417-.418.177-.821.349-1.389.37-1.267.049-2.233-1.266-3.043-2.434C.494 15.088-.77 10.728.928 7.785 1.77 6.323 3.28 5.398 4.916 5.373c.706-.013 1.389.258 1.987.494.457.181.864.343 1.194.343.296 0 .692-.156 1.153-.338.728-.286 1.619-.637 2.537-.544.629.026 2.393.253 3.525 1.908l-.005.003c-.147.088-2.1 1.26-2.078 3.656zm8.966-8.773a29.62 29.62 0 00-1.65.233V19.64h1.212v-7.475c.55.121 1.23.182 2.037.182.894 0 1.72-.113 2.476-.338a5.442 5.442 0 001.96-1.025c.552-.46.997-1.04 1.303-1.7.317-.675.477-1.462.477-2.361 0-.744-.116-1.402-.348-1.973a4.44 4.44 0 00-.968-1.479c-.48-.468-1.095-.826-1.843-1.077-.748-.25-1.638-.376-2.67-.376a17.45 17.45 0 00-1.985.104zm-.438 8.955c.293.085.619.146.98.18.361.035.748.052 1.16.052 1.548 0 2.747-.363 3.598-1.09.851-.726 1.277-1.79 1.277-3.191 0-.675-.113-1.263-.336-1.766a3.157 3.157 0 00-.954-1.232 4.34 4.34 0 00-1.47-.727 6.73 6.73 0 00-1.882-.247c-.55 0-1.023.021-1.419.065-.395.043-.713.09-.954.142v7.814zm17.92 7.111a44.458 44.458 0 01-.027-1.505h.001v-4.906a9.17 9.17 0 00-.166-1.726 4.28 4.28 0 00-.633-1.57 3.49 3.49 0 00-1.276-1.141c-.541-.295-1.243-.442-2.103-.442a6.724 6.724 0 00-1.83.247 5.712 5.712 0 00-1.702.817l.387.91a5.34 5.34 0 011.431-.689 5.278 5.278 0 011.586-.246c.705 0 1.264.13 1.677.39a2.6 2.6 0 01.928.96c.203.373.339.782.399 1.206a8.1 8.1 0 01.09 1.13v.337c-2.475-.035-4.328.346-5.557 1.142-1.23.796-1.845 1.93-1.845 3.4.002.425.076.847.22 1.246.142.41.366.785.657 1.102.291.321.666.58 1.121.78.456.198.985.297 1.587.297.481 0 .924-.06 1.328-.18a4.402 4.402 0 001.083-.481c.303-.188.584-.41.838-.662a4.36 4.36 0 00.593-.727h.052l.18 1.765h1.135a9.96 9.96 0 01-.155-1.454zm-1.239-5.216c-.684-.017-1.369.01-2.05.077a7.41 7.41 0 00-1.973.455c-.602.234-1.1.575-1.496 1.025-.395.45-.593 1.047-.593 1.791 0 .883.25 1.532.747 1.947a2.547 2.547 0 001.676.623c.5 0 .946-.069 1.341-.207.396-.139.74-.325 1.032-.558.283-.224.53-.49.735-.792.19-.28.342-.586.452-.908.086-.347.128-.598.129-.754v-2.699zm6.73 2.31l-3.146-8.1h-1.29l4.461 11.552c.104.242.155.424.155.545 0 .087-.052.268-.155.545-.292.727-.623 1.345-.993 1.856-.37.51-.71.922-1.019 1.233a5.6 5.6 0 01-1.109.882c-.378.225-.722.407-1.032.545l.413 1.012c.138-.051.41-.177.812-.376.405-.2.848-.515 1.329-.948a6.94 6.94 0 001.122-1.271 15.34 15.34 0 00.993-1.674 25.65 25.65 0 00.967-2.129c.35-.873.69-1.751 1.019-2.634l3.584-9.137h-1.29l-2.94 8.046c-.189.502-.36.991-.515 1.467a179.1 179.1 0 00-.413 1.285h-.051c-.12-.4-.257-.836-.412-1.312a28.395 28.395 0 00-.49-1.388z" fill="#000"/></svg>