<svg width="41" height="20" fill="none" xmlns="http://www.w3.org/2000/svg"><path d="M10.431 8.293c.021 2.22 2.017 2.958 2.04 2.968-.017.052-.32 1.052-1.052 2.085-.634.894-1.291 1.784-2.327 1.802-1.018.018-1.345-.582-2.509-.582-1.162 0-1.526.564-2.49.6-1 .037-1.76-.966-2.4-1.856C.39 11.49-.608 8.166.732 5.922a3.744 3.744 0 013.145-1.838c.981-.018 1.908.637 2.508.637.6 0 1.726-.788 2.91-.672.495.02 1.886.193 2.78 1.455-.073.042-1.661.934-1.644 2.79l.001-.001zM8.518 2.844c.53-.62.888-1.483.79-2.341-.765.03-1.69.492-2.239 1.112-.491.548-.922 1.426-.806 2.268.853.063 1.724-.419 2.255-1.039zM16.2 1.783c.432-.072.866-.131 1.301-.178.52-.056 1.043-.082 1.566-.08.814 0 1.515.096 2.105.287.59.191 1.075.465 1.454.821.328.32.588.705.763 1.128.182.435.274.937.274 1.504 0 .686-.126 1.285-.376 1.8a3.746 3.746 0 01-1.027 1.296c-.434.35-.95.61-1.546.782a7.044 7.044 0 01-1.952.257c-.637 0-1.172-.046-1.606-.139v5.699H16.2V1.783zm.956 6.648c.23.066.488.112.773.138.284.027.59.04.915.04 1.22 0 2.165-.277 2.836-.831.671-.554 1.007-1.365 1.007-2.433 0-.515-.088-.963-.265-1.346a2.419 2.419 0 00-.752-.94 3.47 3.47 0 00-1.159-.554 5.478 5.478 0 00-1.484-.188c-.434 0-.807.016-1.119.05a7.735 7.735 0 00-.752.108v5.956zm14.109 4.274c0 .383.007.765.02 1.148.014.383.055.751.122 1.108h-.894l-.143-1.345h-.04c-.136.2-.293.386-.468.554-.2.192-.422.361-.66.504a3.53 3.53 0 01-.855.367 3.76 3.76 0 01-1.047.138c-.475 0-.892-.076-1.251-.227a2.562 2.562 0 01-.885-.594 2.415 2.415 0 01-.518-.84 2.757 2.757 0 01-.172-.95c0-1.122.484-1.986 1.454-2.593.97-.606 2.43-.897 4.382-.87v-.257a5.955 5.955 0 00-.071-.861 2.666 2.666 0 00-.315-.92 2.013 2.013 0 00-.732-.732c-.325-.198-.766-.297-1.322-.297-.42 0-.837.062-1.25.188-.4.119-.78.295-1.129.524l-.305-.693c.433-.29.881-.497 1.342-.623a5.49 5.49 0 011.443-.188c.678 0 1.231.112 1.658.337.427.223.762.514 1.007.87.246.36.416.768.498 1.197.088.442.132.88.132 1.316v3.74h-.001zm-.956-2.829c-.54-.013-1.08.007-1.617.059a6.017 6.017 0 00-1.555.346 2.98 2.98 0 00-1.18.782c-.311.343-.467.798-.467 1.366 0 .672.196 1.167.589 1.484a2.05 2.05 0 001.322.475c.393 0 .745-.053 1.057-.158a2.732 2.732 0 001.392-1.03c.15-.214.27-.447.356-.693.068-.264.102-.456.102-.574V9.876zm2.826-4.413l2.48 6.174c.136.343.265.695.387 1.058.122.363.23.696.325 1h.04c.096-.29.204-.617.326-.98.121-.362.257-.736.406-1.118l2.319-6.134h1.016l-2.826 6.966a80.437 80.437 0 01-.804 2.008 18.915 18.915 0 01-.762 1.623c-.257.48-.518.906-.782 1.276a5.353 5.353 0 01-.886.97c-.38.329-.728.57-1.047.721a8.948 8.948 0 01-.64.287l-.326-.771c.244-.106.516-.244.814-.416a4.41 4.41 0 00.874-.672 8.12 8.12 0 00.803-.94c.292-.39.553-.861.784-1.415.08-.211.122-.35.122-.416 0-.092-.04-.23-.123-.415l-3.517-8.806h1.017z" fill="#000"/></svg>