<svg width="92" height="24" fill="none" xmlns="http://www.w3.org/2000/svg"><path fill-rule="evenodd" clip-rule="evenodd" d="M29.192 5.79h5.07c1.697 0 2.975.466 3.696 1.347.656.802.874 1.947.647 3.404-.504 3.332-2.431 5.013-5.772 5.013h-1.605a.713.713 0 00-.695.619l-.553 3.647a.714.714 0 01-.697.62h-2.42a.434.434 0 01-.418-.508l2.05-13.523a.714.714 0 01.697-.619zm2.643 6.832c1.345 0 2.735 0 3.012-1.892.102-.665.02-1.146-.246-1.47-.446-.543-1.31-.543-2.226-.543h-.35a.428.428 0 00-.418.371l-.537 3.534h.765zm15.155-1.954h2.429c.26 0 .457.242.416.508l-1.312 8.643a.714.714 0 01-.697.62H45.64a.434.434 0 01-.417-.51l.109-.701s-1.2 1.446-3.361 1.446c-1.26 0-2.319-.378-3.059-1.285-.806-.986-1.136-2.4-.904-3.88.446-2.965 2.738-5.078 5.421-5.078 1.17 0 2.342.265 2.868 1.059l.17.255.107-.706a.428.428 0 01.418-.37zm-3.695 7.327c1.404 0 2.505-.969 2.74-2.412.105-.698-.041-1.332-.411-1.786-.37-.45-.93-.688-1.62-.688-1.383 0-2.502 1-2.72 2.43-.115.702.022 1.332.38 1.775.362.446.926.68 1.63.68z" fill="#000"/><path d="M62.351 10.668h-2.44a.7.7 0 00-.583.322l-3.366 5.155-1.426-4.954a.71.71 0 00-.676-.523h-2.398c-.291 0-.494.296-.401.582l2.688 8.203-2.527 3.71c-.199.292.001.694.344.694h2.438a.696.696 0 00.579-.315l8.115-12.184c.195-.291-.005-.69-.347-.69z" fill="#000"/><path opacity=".64" fill-rule="evenodd" clip-rule="evenodd" d="M65.358 5.79h5.072c1.697 0 2.974.466 3.694 1.347.656.802.875 1.947.648 3.404-.505 3.331-2.432 5.012-5.773 5.012h-1.604a.713.713 0 00-.695.62l-.582 3.833a.5.5 0 01-.487.433H63.03a.434.434 0 01-.417-.507l2.05-13.523a.714.714 0 01.696-.619zm2.645 6.832c1.345 0 2.735 0 3.012-1.892.101-.665.02-1.146-.246-1.47-.446-.543-1.31-.543-2.226-.543h-.35a.426.426 0 00-.417.37l-.537 3.535h.764zm15.157-1.954h2.426c.26 0 .459.242.419.508l-1.313 8.643a.713.713 0 01-.696.62H81.81a.434.434 0 01-.418-.51l.108-.701s-1.199 1.446-3.36 1.446c-1.26 0-2.318-.378-3.06-1.285-.806-.986-1.134-2.4-.903-3.88.446-2.965 2.737-5.078 5.42-5.078 1.17 0 2.342.265 2.868 1.059l.17.255.108-.706a.426.426 0 01.416-.37zm-3.698 7.327c1.404 0 2.507-.969 2.74-2.412.107-.698-.04-1.332-.411-1.786-.37-.45-.93-.688-1.62-.688-1.382 0-2.5 1-2.72 2.43-.113.702.022 1.332.38 1.775.362.446.927.68 1.63.68z" fill="#000"/><path opacity=".64" d="M88.449 6.16l-2.081 13.772a.434.434 0 00.416.507h2.092a.712.712 0 00.697-.62l2.052-13.522a.434.434 0 00-.417-.508h-2.343a.43.43 0 00-.416.372zm-71.361.338a13.2 13.2 0 01-.07.424c-.918 4.897-4.056 6.59-8.063 6.59h-2.04c-.49 0-.904.37-.98.872l-1.045 6.89-.295 1.954c-.05.33.195.628.515.628h3.619a.882.882 0 00.86-.764l.035-.19.682-4.498.044-.247a.881.881 0 01.86-.765h.54c3.507 0 6.252-1.48 7.054-5.765.335-1.79.162-3.284-.725-4.335a3.482 3.482 0 00-.99-.794z" fill="#000"/><path d="M16.13 6.1a7.001 7.001 0 00-.893-.206 10.903 10.903 0 00-1.799-.136h-5.45a.838.838 0 00-.376.088.901.901 0 00-.484.677l-1.16 7.638-.033.223c.077-.502.49-.873.98-.873h2.04c4.008 0 7.145-1.692 8.062-6.589a11.5 11.5 0 00.072-.424 4.79 4.79 0 00-.96-.398z" fill="#000"/><path opacity=".81" d="M7.128 6.523a.898.898 0 01.484-.676.84.84 0 01.375-.088h5.451c.646 0 1.249.044 1.8.136a7.001 7.001 0 011.098.272c.27.094.521.204.753.331.273-1.81-.002-3.042-.943-4.158C15.11 1.112 13.236.586 10.841.586H3.887c-.49 0-.907.37-.983.874L.007 20.557c-.057.377.224.718.59.718H4.89l1.079-7.113 1.16-7.64z" fill="#000"/></svg>