<svg width="72" height="19" fill="none" xmlns="http://www.w3.org/2000/svg"><path d="M26.816 4.412h-3.969a.552.552 0 00-.545.466L20.697 15.07a.33.33 0 00.327.382h1.895a.552.552 0 00.545-.467l.433-2.748a.551.551 0 01.544-.467h1.256c2.615 0 4.123-1.267 4.517-3.778.178-1.098.008-1.96-.506-2.565-.564-.664-1.564-1.015-2.892-1.015zm.457 3.722c-.217 1.426-1.305 1.426-2.357 1.426h-.599l.42-2.663a.33.33 0 01.327-.28h.275c.716 0 1.393 0 1.742.41.208.244.272.606.192 1.107zm11.406-.046h-1.9a.331.331 0 00-.328.28l-.084.532-.133-.193c-.411-.598-1.328-.798-2.244-.798-2.1 0-3.894 1.593-4.243 3.828-.182 1.114.076 2.18.708 2.924.579.683 1.408.968 2.393.968 1.693 0 2.63-1.09 2.63-1.09l-.084.529a.33.33 0 00.326.383h1.712a.552.552 0 00.545-.466l1.027-6.514a.33.33 0 00-.325-.383zm-2.65 3.705c-.183 1.087-1.045 1.817-2.144 1.817-.551 0-.992-.178-1.276-.513-.28-.334-.387-.809-.298-1.338.171-1.078 1.047-1.831 2.13-1.831.54 0 .978.18 1.267.518.29.342.405.82.322 1.347zM48.8 8.089h-1.91a.553.553 0 00-.456.242L43.8 12.216l-1.117-3.733a.553.553 0 00-.529-.394h-1.877a.331.331 0 00-.313.438l2.103 6.182-1.977 2.796a.331.331 0 00.27.523h1.907a.55.55 0 00.453-.237l6.352-9.182a.331.331 0 00-.272-.52z" fill="#000"/><path opacity=".64" d="M55.123 4.412h-3.97a.551.551 0 00-.544.466L49.004 15.07a.33.33 0 00.326.382h2.037c.19 0 .351-.138.38-.327l.456-2.889a.551.551 0 01.545-.466h1.255c2.615 0 4.123-1.267 4.518-3.778.178-1.098.007-1.96-.507-2.565-.563-.664-1.563-1.015-2.891-1.015zm.458 3.722c-.217 1.426-1.305 1.426-2.358 1.426h-.598l.42-2.663a.33.33 0 01.327-.28h.275c.716 0 1.392 0 1.742.41.208.244.271.606.192 1.107zm11.404-.046h-1.9a.33.33 0 00-.325.28l-.084.532-.134-.193c-.411-.598-1.328-.798-2.244-.798-2.1 0-3.893 1.593-4.242 3.828-.181 1.114.076 2.18.707 2.924.58.683 1.408.968 2.394.968 1.692 0 2.63-1.09 2.63-1.09l-.084.529a.331.331 0 00.327.383h1.711a.552.552 0 00.544-.466l1.028-6.514a.332.332 0 00-.328-.383zm-2.649 3.705c-.182 1.087-1.045 1.817-2.144 1.817-.55 0-.993-.178-1.276-.513-.28-.334-.386-.809-.298-1.338.172-1.078 1.047-1.831 2.13-1.831.539 0 .978.18 1.267.518.29.342.405.82.321 1.347zm4.89-7.101l-1.63 10.378a.33.33 0 00.327.382h1.638a.55.55 0 00.544-.467l1.607-10.19a.331.331 0 00-.326-.383h-1.834a.332.332 0 00-.326.28zm-55.852.253a9.4 9.4 0 01-.055.32c-.718 3.69-3.174 4.966-6.31 4.966H5.412a.776.776 0 00-.767.658l-.818 5.193-.231 1.472a.409.409 0 00.403.473h2.833c.335 0 .62-.244.673-.576l.028-.144.533-3.389.034-.186a.681.681 0 01.673-.576h.424c2.744 0 4.892-1.116 5.52-4.345.262-1.349.127-2.475-.567-3.267a2.709 2.709 0 00-.776-.599z" fill="#000"/><path d="M12.624 4.646a5.673 5.673 0 00-.698-.155 8.857 8.857 0 00-1.408-.103H6.252a.676.676 0 00-.673.576l-.908 5.757-.026.168a.776.776 0 01.767-.658h1.597c3.136 0 5.592-1.276 6.31-4.966.021-.109.04-.215.056-.32a3.827 3.827 0 00-.751-.3z" fill="#000"/><path opacity=".81" d="M5.579 4.964a.68.68 0 01.672-.576h4.267c.505 0 .977.033 1.407.103a5.646 5.646 0 01.86.205c.212.07.409.154.59.25.214-1.364-.002-2.293-.738-3.134C11.825.886 10.36.49 8.485.49H3.042a.778.778 0 00-.769.658L.006 15.54a.468.468 0 00.461.542h3.36l.844-5.361.908-5.757z" fill="#000"/></svg>