<svg width="24" height="25" fill="none" xmlns="http://www.w3.org/2000/svg"><path fill-rule="evenodd" clip-rule="evenodd" d="M12 0C5.373 0 0 5.373 0 12c0 5.085 3.163 9.431 7.627 11.18-.105-.95-.2-2.41.042-3.447.218-.936 1.407-5.965 1.407-5.965s-.36-.719-.36-1.782c0-1.668.968-2.914 2.172-2.914 1.024 0 1.518.769 1.518 1.69 0 1.03-.655 2.57-.994 3.996-.282 1.195.6 2.169 1.777 2.169 2.133 0 3.773-2.25 3.773-5.496 0-2.873-2.065-4.882-5.013-4.882-3.414 0-5.418 2.561-5.418 5.208 0 1.031.397 2.137.893 2.739a.359.359 0 01.083.344c-.091.379-.293 1.194-.333 1.36-.053.22-.174.267-.402.161-1.498-.697-2.435-2.889-2.435-4.649 0-3.786 2.75-7.262 7.928-7.262 4.163 0 7.398 2.966 7.398 6.93 0 4.137-2.607 7.466-6.227 7.466-1.216 0-2.359-.632-2.75-1.378 0 0-.602 2.29-.748 2.852-.27 1.043-1.002 2.35-1.491 3.146 1.123.348 2.316.535 3.553.535 6.627 0 12-5.372 12-12S18.627 0 12 0z" fill="#000"/></svg>