<svg width="86" height="14" fill="none" xmlns="http://www.w3.org/2000/svg"><path d="M73.534.753v.727a4.16 4.16 0 00-2.645-.957c-2.398 0-4.359 2.104-4.359 4.687s1.942 4.687 4.359 4.687a4.16 4.16 0 002.645-.956v.803h1.998V.753h-1.998zm-2.417 7.384c-1.447 0-2.626-1.3-2.626-2.927 0-1.626 1.18-2.908 2.626-2.908s2.626 1.301 2.626 2.927c0 1.626-1.18 2.908-2.626 2.908zM61.049.523c-.97 0-1.922.344-2.664.995V.753h-2.018v12.262h1.998V8.921a4.25 4.25 0 002.665.995c2.398 0 4.358-2.104 4.358-4.687S63.466.523 61.05.523zm-.228 7.614c-1.447 0-2.627-1.3-2.627-2.927 0-1.626 1.18-2.927 2.627-2.927 1.446 0 2.626 1.3 2.626 2.927 0 1.626-1.18 2.927-2.626 2.927zM84.04.753l-2.57 6.121L78.73.753h-1.98l3.77 8.417-1.62 3.845h1.96L86 .753h-1.96zM43.654 1.996l.095 5.93h-.038l-1.732-5.93h-2.798v7.48h1.846l-.095-6.14h.038l1.866 6.14h2.683v-7.48h-1.865zm-35.4 0L6.865 9.553h2.036L9.93 2.685h.038l1.009 6.868h2.017l-1.389-7.557h-3.35zm11.362 0l-.932 5.778h-.038l-.914-5.778H14.65l-.171 7.557h1.884L16.4 2.76h.038l1.275 6.792h1.903l1.257-6.792h.038l.038 6.792h1.884l-.171-7.557h-3.046zM3.706 7.41c.057.191.057.383.019.574-.057.249-.229.497-.742.497-.476 0-.762-.267-.762-.688v-.746H.204v.574c0 1.683 1.313 2.2 2.74 2.2 1.37 0 2.475-.46 2.665-1.722a3.422 3.422 0 000-1.244C5.285 5.267 2.43 4.808 2.22 3.91a1.42 1.42 0 010-.402c.057-.248.21-.516.685-.516a.643.643 0 01.705.574v.573h1.884v-.536c0-1.645-1.466-1.913-2.532-1.913-1.332 0-2.436.44-2.626 1.683a2.365 2.365 0 000 1.034c.305 1.587 2.97 2.027 3.369 3.003zm24.437 0c.057.172.057.364.019.555-.057.249-.229.497-.723.497-.457 0-.743-.268-.743-.67v-.726h-1.998v.574c0 1.664 1.313 2.161 2.703 2.161 1.35 0 2.455-.459 2.626-1.702a3.307 3.307 0 000-1.225c-.324-1.55-3.16-2.027-3.35-2.907a1.291 1.291 0 010-.383c.057-.249.21-.498.686-.498a.625.625 0 01.685.574v.556h1.846V3.68c0-1.627-1.447-1.894-2.512-1.894-1.333 0-2.399.44-2.608 1.664a2.59 2.59 0 00.02 1.014c.323 1.53 2.968 1.97 3.349 2.946zm6.318.995c.343.038.648-.21.724-.536.019-.095.019-.191.019-.287V1.996h1.903V7.41c0 .134-.02.421-.02.498-.132 1.415-1.236 1.874-2.626 1.874-1.389 0-2.493-.459-2.626-1.874 0-.077-.019-.364-.019-.498V1.996h1.903v5.586c0 .096 0 .192.02.287.075.345.38.574.722.536zm15.683-.077c.552 0 .742-.344.761-.535.019-.096.019-.192.019-.287v-1.09h-.761v-1.11h2.664v2.028c0 .134 0 .248-.019.497-.114 1.377-1.313 1.875-2.645 1.875s-2.512-.498-2.646-1.875c-.019-.249-.019-.364-.019-.497V4.139c0-.172.02-.326.038-.498.172-1.415 1.314-1.875 2.646-1.875 1.332 0 2.493.44 2.645 1.875.02.172.02.326.02.498v.248h-1.904v-.42c0-.096 0-.192-.019-.287-.038-.173-.171-.555-.761-.555-.362-.038-.666.21-.742.555-.02.114-.038.23-.038.363v3.463c0 .095 0 .191.018.287 0 .191.19.535.743.535z" fill="#000"/></svg>