<svg width="110" height="18" fill="none" xmlns="http://www.w3.org/2000/svg"><path fill-rule="evenodd" clip-rule="evenodd" d="M78.089.903a4.996 4.996 0 00-3.408 1.351V1.215h-2.58v16.653h2.556v-5.56a5.252 5.252 0 003.407 1.351c3.068 0 5.575-2.858 5.575-6.365S81.18.904 78.089.904zm15.968 1.3v-.988h2.556v12.21h-2.556v-1.09c-.95.83-2.142 1.298-3.383 1.298-3.092 0-5.575-2.858-5.575-6.365S87.608.903 90.675.903c1.241 0 2.434.468 3.383 1.3zm-6.45 5.065c0 2.208 1.509 3.975 3.359 3.975s3.359-1.74 3.359-3.949c0-2.208-1.51-3.975-3.36-3.975-1.85 0-3.359 1.74-3.359 3.95zm-13.17 0c0 2.208 1.51 3.975 3.36 3.975 1.85 0 3.359-1.767 3.359-3.975s-1.51-3.975-3.36-3.975c-1.85 0-3.359 1.767-3.359 3.975zm33.056-6.053l-3.286 8.314-3.505-8.314H98.17l4.82 11.431-2.069 5.222h2.507L110 1.215h-2.507zm-51.53 9.742l-.122-8.054h2.385v10.158h-3.432l-2.385-8.34h-.049l.122 8.34H50.12V2.903h3.578l2.215 8.054h.049zM10.566 2.903L8.789 13.165h2.604l1.315-9.326h.048l1.29 9.326h2.58L14.85 2.903h-4.284zm13.339 7.846l1.192-7.846h3.895l.22 10.262h-2.41l-.05-9.222h-.048l-1.607 9.222h-2.434l-1.63-9.222h-.05l-.048 9.222h-2.41l.22-10.262h3.943l1.168 7.846h.049zm-19.157-.493c.073.26.073.52.024.78-.073.337-.292.675-.949.675-.609 0-.974-.364-.974-.936V9.762H.27v.78c0 2.286 1.68 2.987 3.505 2.987 1.753 0 3.165-.623 3.408-2.338a4.918 4.918 0 000-1.689C6.945 8.267 5.646 7.535 4.53 6.906c-.833-.47-1.565-.883-1.68-1.404a2.047 2.047 0 010-.546c.073-.338.268-.701.877-.701.462-.052.852.311.9.779v.779h2.41v-.727c0-2.234-1.874-2.598-3.237-2.598-1.704 0-3.116.597-3.36 2.286a3.405 3.405 0 000 1.403C.666 7.424 1.9 8.15 3 8.797c.803.47 1.533.9 1.749 1.459zm31.279.753c.048-.26.048-.52-.025-.753-.209-.57-.952-1.004-1.765-1.48-1.08-.632-2.283-1.335-2.519-2.521a3.754 3.754 0 01-.024-1.377c.268-1.663 1.63-2.26 3.335-2.26 1.363 0 3.213.363 3.213 2.572v.727H35.88v-.754c-.025-.467-.438-.83-.877-.779-.608 0-.803.338-.876.676a1.86 1.86 0 000 .52c.105.512.832.925 1.662 1.395 1.103.625 2.386 1.352 2.622 2.553a4.767 4.767 0 010 1.663c-.219 1.688-1.63 2.312-3.359 2.312-1.777 0-3.456-.675-3.456-2.936v-.779h2.555v.987c0 .546.365.91.95.91.633 0 .852-.338.925-.676zm8.058.598c.438.052.828-.286.925-.728.024-.13.024-.26.024-.39V2.903h2.434v7.353c0 .103-.008.274-.014.42v.001c-.005.112-.01.21-.01.254-.17 1.923-1.582 2.546-3.359 2.546s-3.189-.623-3.36-2.546c0-.045-.004-.142-.009-.253v-.001a10.623 10.623 0 01-.014-.421V2.903h2.434v7.586c0 .13 0 .26.024.39.097.468.487.78.925.728zm21.03-.831c-.025.26-.268.727-.974.727s-.95-.467-.95-.727c-.024-.13-.024-.26-.024-.39V5.684c0-.182.025-.338.05-.494.096-.468.486-.805.948-.753.755 0 .925.52.974.753.024.13.024.26.024.39v.571h2.435v-.337c0-.234 0-.442-.025-.676-.194-1.948-1.68-2.546-3.383-2.546-1.704 0-3.165.624-3.384 2.546l-.006.064c-.022.208-.042.4-.042.612v4.338c0 .182 0 .338.024.676.17 1.87 1.68 2.546 3.383 2.546 1.704 0 3.238-.676 3.384-2.546a8.02 8.02 0 00.024-.676V7.398h-3.408v1.507h.974v1.481c0 .13 0 .26-.024.39z" fill="#000"/></svg>