<svg width="24" height="24" fill="none" xmlns="http://www.w3.org/2000/svg"><path fill-rule="evenodd" clip-rule="evenodd" d="M3 24h18c1.656 0 3-1.344 3-3V3c0-1.656-1.344-3-3-3H3C1.344 0 0 1.344 0 3v18c0 1.656 1.344 3 3 3zM17.97 9.342c0 4.062-3.096 8.754-8.754 8.754a8.752 8.752 0 01-4.71-1.374c.24.03.486.042.732.042a6.17 6.17 0 003.822-1.32 3.077 3.077 0 01-2.874-2.136c.186.036.378.054.576.054a3 3 0 00.81-.108 3.083 3.083 0 01-2.466-3.018v-.042c.414.228.888.366 1.392.384a3.085 3.085 0 01-.954-4.11 8.737 8.737 0 006.342 3.216 3.08 3.08 0 013-3.78c.882 0 1.68.372 2.244.972a6.12 6.12 0 001.956-.744 3.095 3.095 0 01-1.356 1.704 6.236 6.236 0 001.77-.486 6.268 6.268 0 01-1.536 1.596c.006.132.006.264.006.396z" fill="#000"/></svg>