<svg width="108" height="34" fill="none" xmlns="http://www.w3.org/2000/svg"><path fill-rule="evenodd" clip-rule="evenodd" d="M56.95 8.538c0 1.19-.97 2.147-2.172 2.147a2.156 2.156 0 01-2.173-2.147c0-1.19.936-2.147 2.173-2.147 1.236.033 2.172.99 2.172 2.147zm-8.958 4.327v.529s-1.036-1.322-3.243-1.322c-3.643 0-6.485 2.742-6.485 6.54 0 3.767 2.808 6.542 6.485 6.542 2.24 0 3.243-1.355 3.243-1.355v.562c0 .264.2.462.468.462h2.707v-12.42H48.46a.475.475 0 00-.468.462zm0 7.961c-.502.727-1.505 1.354-2.708 1.354-2.14 0-3.777-1.32-3.777-3.567 0-2.246 1.638-3.568 3.777-3.568 1.17 0 2.24.661 2.708 1.355v4.426zm5.181-8.423h3.209v12.42h-3.209v-12.42zm47.935-.33c-2.207 0-3.243 1.32-3.243 1.32v-6.97h-3.209v18.4h2.708a.475.475 0 00.468-.462v-.562s1.036 1.355 3.242 1.355c3.644 0 6.485-2.775 6.485-6.541 0-3.766-2.841-6.54-6.451-6.54zm-.535 10.075c-1.237 0-2.206-.628-2.708-1.355v-4.426c.502-.661 1.571-1.355 2.708-1.355 2.139 0 3.777 1.322 3.777 3.568s-1.638 3.568-3.777 3.568zm-7.588-4.691v7.4h-3.21V17.82c0-2.048-.668-2.874-2.473-2.874-.97 0-1.972.496-2.607 1.223v8.654h-3.21v-12.42h2.541c.268 0 .468.231.468.462v.529c.936-.958 2.173-1.322 3.41-1.322 1.404 0 2.574.397 3.51 1.19 1.136.925 1.57 2.114 1.57 4.195zm-19.288-5.385c-2.206 0-3.242 1.322-3.242 1.322v-6.97h-3.21v18.4h2.709a.475.475 0 00.467-.463v-.562s1.037 1.355 3.243 1.355c3.643 0 6.485-2.775 6.485-6.541.033-3.766-2.808-6.54-6.452-6.54zm-.535 10.076c-1.236 0-2.206-.628-2.707-1.355v-4.426c.501-.661 1.57-1.355 2.707-1.355 2.14 0 3.778 1.322 3.778 3.568s-1.638 3.568-3.778 3.568zm-8.69-10.076c.969 0 1.47.166 1.47.166v2.94s-2.674-.892-4.345.99v8.688h-3.21V12.403h2.708c.268 0 .468.231.468.462v.529c.602-.694 1.906-1.322 2.908-1.322zM31.143 23.7c-.167-.396-.334-.826-.501-1.19-.267-.594-.535-1.155-.769-1.684l-.033-.033a343.105 343.105 0 00-7.384-14.93l-.1-.199a67.132 67.132 0 01-.803-1.553c-.334-.594-.668-1.222-1.203-1.816C19.28.973 17.744.247 16.106.247c-1.672 0-3.176.726-4.28 1.982-.5.594-.868 1.222-1.203 1.816a63.518 63.518 0 01-.802 1.553l-.1.198c-2.574 4.955-5.081 9.976-7.387 14.931l-.034.066c-.234.529-.501 1.09-.769 1.685-.167.363-.334.76-.501 1.189-.435 1.222-.568 2.378-.401 3.568a7.036 7.036 0 004.345 5.483c.87.363 1.772.529 2.708.529a8.903 8.903 0 004.212-1.19c1.37-.76 2.674-1.85 4.145-3.435 1.47 1.585 2.808 2.676 4.145 3.435a8.903 8.903 0 003.342 1.123c.268.034.602.067.87.067.935 0 1.871-.166 2.704-.529a7.021 7.021 0 004.345-5.483c.268-1.157.134-2.313-.3-3.535zm-15.072 1.718c-1.805-2.246-2.975-4.36-3.376-6.144-.167-.76-.2-1.42-.1-2.015a3.18 3.18 0 01.534-1.388c.636-.892 1.705-1.453 2.942-1.453s2.34.528 2.942 1.453c.267.397.468.86.535 1.388.1.594.066 1.288-.1 2.015-.402 1.75-1.572 3.864-3.377 6.144zm13.334 1.552c-.234 1.718-1.404 3.204-3.038 3.865-.803.33-1.672.43-2.54.33-.837-.099-1.672-.363-2.541-.858-1.204-.661-2.407-1.685-3.811-3.205 2.206-2.675 3.543-5.12 4.045-7.3a8.184 8.184 0 00.167-2.808 5.323 5.323 0 00-.903-2.246c-1.036-1.486-2.774-2.345-4.713-2.345s-3.677.892-4.713 2.345a5.323 5.323 0 00-.903 2.246c-.133.86-.1 1.817.168 2.808.5 2.18 1.871 4.658 4.044 7.334-1.37 1.519-2.607 2.543-3.81 3.204-.87.495-1.705.76-2.541.858a5.405 5.405 0 01-2.54-.33c-1.638-.66-2.808-2.147-3.042-3.865a5.408 5.408 0 01.3-2.576c.1-.33.268-.66.435-1.057.234-.529.501-1.09.769-1.652l.033-.066A359.297 359.297 0 0111.626 6.82l.1-.198c.268-.496.535-1.024.803-1.52.267-.528.568-1.024.936-1.453.702-.793 1.638-1.222 2.674-1.222s1.972.43 2.674 1.222c.368.43.669.925.936 1.453.268.496.535 1.024.802 1.52l.1.198a429.849 429.849 0 017.318 14.865v.033c.267.529.501 1.123.769 1.652.167.396.334.726.434 1.057.268.859.368 1.684.234 2.543z" fill="#B9B9B9"/></svg>