<svg width="83" height="43" fill="none" xmlns="http://www.w3.org/2000/svg"><path fill-rule="evenodd" clip-rule="evenodd" d="M80.995 40.18h.408l.562 1.5h.01l.54-1.5h.397V42h-.264v-1.488h-.011L82.075 42h-.254l-.55-1.488h-.012V42h-.264v-1.82zm-.132 0v.214h-.64V42h-.264v-1.606h-.639v-.214h1.543zm2.05-26.908c0-.953-.794-1.724-1.775-1.724-.98 0-1.785.771-1.785 1.724v3.64c0 .954.805 1.735 1.785 1.735.98 0 1.774-.781 1.774-1.734v-3.64zm-9.785-4.765c0-.958-.793-1.733-1.807-1.733-.98 0-1.774.775-1.774 1.733v8.406c0 .953.794 1.734 1.774 1.734 1.014 0 1.807-.781 1.807-1.734V8.507zm-9.817-6.531c0-.954-.793-1.73-1.774-1.73-.98 0-1.785.776-1.785 1.73V20.36c0 .964.805 1.735 1.785 1.735.98 0 1.774-.77 1.774-1.735V1.976zm-9.806 6.531c0-.958-.793-1.733-1.785-1.733-.98 0-1.774.775-1.774 1.733v8.406c0 .953.794 1.734 1.774 1.734.992 0 1.785-.781 1.785-1.734V8.507zM43.7 13.272c0-.953-.804-1.724-1.785-1.724-.98 0-1.785.771-1.785 1.724v3.64c0 .954.805 1.735 1.785 1.735.98 0 1.785-.781 1.785-1.734v-3.64zm-9.795-4.765c0-.958-.804-1.733-1.785-1.733-.991 0-1.796.775-1.796 1.733v8.406c0 .953.805 1.734 1.796 1.734.981 0 1.785-.781 1.785-1.734V8.507zm-9.806-6.531c0-.954-.804-1.73-1.785-1.73-.991 0-1.784.776-1.784 1.73V20.36c0 .964.793 1.735 1.784 1.735.981 0 1.785-.77 1.785-1.735V1.976zm-9.806 6.531c0-.958-.804-1.733-1.785-1.733-.991 0-1.784.775-1.784 1.733v8.406c0 .953.793 1.734 1.784 1.734.981 0 1.785-.781 1.785-1.734V8.507zm-9.81 4.765c0-.953-.801-1.724-1.784-1.724-.984 0-1.786.771-1.786 1.724v3.64c0 .954.802 1.735 1.786 1.735.983 0 1.784-.781 1.784-1.734v-3.64zm36.86 18.032c-.056-.011-1.576-.418-2.821-.418-1.433 0-2.215.46-2.215 1.135 0 .835 1.058 1.135 1.642 1.317l.992.3c2.335.728 3.404 2.28 3.404 3.962 0 3.48-3.151 4.647-5.906 4.647-1.906 0-3.702-.332-3.878-.375V38.68c.32.086 1.83.525 3.394.525 1.785 0 2.61-.514 2.61-1.296 0-.707-.704-1.113-1.597-1.381-.22-.075-.55-.172-.771-.247-2.005-.61-3.669-1.755-3.669-4.047 0-2.591 1.994-4.326 5.31-4.326 1.741 0 3.394.407 3.504.44v2.955zm26.663.139c-2.138 0-3.713 1.627-3.713 3.64s1.575 3.64 3.713 3.64c2.137 0 3.724-1.627 3.724-3.64s-1.587-3.64-3.724-3.64zm7.525 3.64c0 3.962-3.14 7.164-7.525 7.164s-7.525-3.202-7.525-7.164c0-3.961 3.14-7.174 7.525-7.174s7.525 3.213 7.525 7.174zm-56.368-2.955c-.143-.075-1.3-.739-3.019-.739-2.336 0-3.944 1.574-3.944 3.694 0 2.056 1.542 3.694 3.944 3.694 1.686 0 2.865-.653 3.02-.738v3.715c-.453.129-1.675.493-3.284.493-4.044 0-7.584-2.71-7.584-7.164 0-4.143 3.21-7.174 7.584-7.174 1.697 0 2.942.396 3.283.504v3.715zm37.527 0c-.143-.075-1.3-.739-3.019-.739-2.324 0-3.933 1.574-3.933 3.694 0 2.056 1.543 3.694 3.933 3.694 1.686 0 2.865-.653 3.02-.738v3.715c-.441.129-1.675.493-3.273.493-4.044 0-7.591-2.71-7.591-7.164 0-4.143 3.206-7.174 7.591-7.174 1.686 0 2.942.396 3.272.504v3.715zM27.701 42H24.11V28.156h3.592V42z" fill="#B9B9B9"/></svg>