<svg width="70" height="34" fill="none" xmlns="http://www.w3.org/2000/svg"><path fill-rule="evenodd" clip-rule="evenodd" d="M28.989.263c-2.862.201-5.284 2.621-5.284 6.03v16.22c0 .587-.431 1.094-1.063 1.094h-5.036c-10.903.016-9.935-14.003-.655-14.019h5.58V5.513h-5.772c-3.7 0-6.443 1.39-8.29 3.456-1.854 2.074-2.78 4.855-2.78 7.636-.009 2.782.91 5.547 2.805 7.62 1.894 2.067 4.756 3.457 8.68 3.457h9.505c.623 0 1.143-.546 1.143-1.173V6.726c-.008-1.02.567-1.808 1.31-2.041.744-.234 1.615.064 2.127.803l.024.025c2.702 4.445 13.429 21.751 13.445 21.784.295.418.647.498.903.41.256-.089.511-.362.511-1.054V6.726c-.008-1.02.568-1.808 1.311-2.041.744-.234 1.599.064 2.11.803v.025h.04c2.702 4.445 13.43 21.751 13.445 21.784.288.418.632.498.904.41.271-.089.535-.346.535-1.03V.368h-4.076v15.353s-2.43-4.172-6.587-11.366C49.747-2.687 42.05.231 42.05 6.292v9.43s-2.39-4.173-6.555-11.367C33.705 1.276 31.22.095 28.99.263zM17.47.368c-22.669 0-22.453 32.491.304 32.507h8.905c3.829 0 6.267-2.275 6.267-6.487v-8.24s4.995 8.313 6.962 11.568c3.333 5.538 11.382 4.445 11.358-2.468v-9.1s4.98 8.313 6.938 11.568c3.334 5.538 11.407 4.445 11.383-2.468V.36H65.51v26.31c.008 1.012-.52 1.76-1.247 1.993-.727.241-1.558-.064-2.07-.78h-.016v-.04S51.442 10.585 48.708 6.083c-.008-.008-.016.008-.024 0-.008 0 .008-.024 0-.024-.28-.378-.647-.458-.943-.37-.304.097-.6.362-.591 1.03v19.926c.008 1.005-.512 1.793-1.231 2.042-.72.241-1.543-.08-2.047-.804v-.024h-.024S33.105 10.57 30.38 6.075c-.288-.41-.656-.506-.96-.41-.303.097-.6.362-.591 1.03V26.5c0 1.197-.983 2.202-2.174 2.202h-9.496c-4.173 0-7.33-1.511-9.416-3.786-2.087-2.275-3.118-5.297-3.118-8.32.008-3.014 1.031-6.06 3.07-8.335 2.038-2.275 5.091-3.786 9.048-3.786h5.771V.36L17.47.368z" fill="#B9B9B9"/></svg>