<svg width="87" height="36" fill="none" xmlns="http://www.w3.org/2000/svg"><path fill-rule="evenodd" clip-rule="evenodd" d="M12.025 7.875C5.963 7.875.908 10.485.908 18.369c0 6.246 3.392 10.188 11.268 10.188 9.27 0 9.858-6.211 9.858-6.211H17.55s-.957 3.344-5.643 3.344c-3.812 0-6.566-2.61-6.566-6.297h17.18V17.09c0-3.618-2.267-9.215-10.496-9.215zm52.342 4.34c.37.902.578 1.982.575 3.27v9.59c0 1.11.15 2.85.15 2.85h-4.03s-.1-1.399-.1-2.815c0 0-2.05 3.567-8.414 3.567-4.652 0-8.111-2.287-8.111-6.485 0-.223.01-.44.03-.651-1.212 4.305-4.838 7.101-9.737 7.101-5.76 0-7.876-3.361-7.876-3.361a28.97 28.97 0 01-.151 2.662H22.42s.101-1.946.101-3.328V.247h4.366v10.972s1.864-3.276 7.843-3.276c6.398 0 10.177 4.59 10.177 10.29 0 .682-.051 1.34-.15 1.974 1.041-2.933 4.608-4.38 10.478-4.38h5.324v-.956c0-2.679-2.318-4.078-5.324-4.078-4.618 0-4.853 2.969-4.853 2.969h-4.535c0-.82.588-5.887 9.707-5.887 3.116 0 6.536.667 8.26 3.288l-1.307-2.486h5.105l7.339 14.931 7.322-14.931h4.635L73.59 35.247h-4.853l3.846-7.407-8.216-15.626zm-52.493-1.388c3.627 0 6.113 2.252 6.113 5.648H5.459c-.017-3.6 3.224-5.648 6.415-5.648zm21.764.12c-4.618 0-6.734 3.72-6.734 7.303 0 3.874 2.368 7.355 6.768 7.355 3.678 0 6.7-2.918 6.7-7.39 0-4.163-2.62-7.269-6.734-7.269zm26.937 7.747c-6.902 0-11.587.034-11.587 3.498 0 1.911 1.394 3.567 4.652 3.567 5.928 0 6.935-4.13 6.935-5.785v-1.28z" fill="#B9B9B9"/></svg>