<svg width="96" height="31" fill="none" xmlns="http://www.w3.org/2000/svg"><path fill-rule="evenodd" clip-rule="evenodd" d="M12.454 23.52c3.578 0 6.273-1.133 8.383-3.262 2.172-2.105 2.847-5.052 2.847-7.436 0-.74-.059-1.419-.176-1.989H12.454v3.179h7.858c-.235 1.788-.853 3.094-1.787 4.002-1.146 1.104-2.932 2.327-6.07 2.327-4.838 0-8.621-3.775-8.621-8.458s3.783-8.46 8.62-8.46c2.608 0 4.517.996 5.922 2.273l2.317-2.242C18.727 1.64 16.12.247 12.454.247 5.827.247.256 5.467.256 11.883c0 6.415 5.57 11.637 12.198 11.637zm20.175 0c4.279 0 7.768-3.179 7.768-7.495 0-4.34-3.49-7.49-7.768-7.49-4.286 0-7.775 3.15-7.775 7.49 0 4.316 3.49 7.495 7.775 7.495zm0-2.952c-2.348 0-4.374-1.873-4.374-4.543 0-2.694 2.026-4.537 4.374-4.537 2.343 0 4.367 1.843 4.367 4.537 0 2.67-2.024 4.543-4.367 4.543zm16.945 2.952c4.281 0 7.77-3.179 7.77-7.495 0-4.34-3.489-7.49-7.77-7.49-4.283 0-7.772 3.15-7.772 7.49 0 4.316 3.489 7.495 7.772 7.495zm0-2.952c-2.345 0-4.371-1.873-4.371-4.543 0-2.694 2.026-4.537 4.371-4.537 2.346 0 4.37 1.843 4.37 4.537 0 2.67-2.024 4.543-4.37 4.543zm16.655 9.679c3.985 0 7.362-2.269 7.362-7.805V8.988h-3.228v1.22h-.117c-.765-.88-2.231-1.674-4.074-1.674-3.872 0-7.418 3.292-7.418 7.521 0 4.203 3.546 7.465 7.418 7.465 1.843 0 3.309-.795 4.074-1.703h.117v1.079c0 2.869-1.584 4.399-4.134 4.399-2.08 0-3.372-1.445-3.903-2.67l-2.959 1.194c.853 1.99 3.108 4.428 6.862 4.428zm.232-9.679c-2.343 0-4.31-1.899-4.31-4.513 0-2.64 1.967-4.567 4.31-4.567 2.319 0 4.136 1.928 4.136 4.567 0 2.614-1.817 4.513-4.136 4.513zM79.335 1.041h-3.401v22.025h3.401V1.04zM88.66 23.52c3.545 0 5.6-2.098 6.45-3.32l-2.64-1.701c-.878 1.244-2.08 2.07-3.81 2.07s-2.964-.767-3.753-2.271l10.35-4.146-.352-.85c-.645-1.674-2.611-4.768-6.626-4.768-3.988 0-7.301 3.04-7.301 7.49 0 4.204 3.284 7.496 7.682 7.496zm-4.31-7.72c-.088-2.893 2.316-4.37 4.046-4.37 1.349 0 2.493.652 2.876 1.589L84.35 15.8z" fill="#B9B9B9"/></svg>