<svg width="139" height="20" fill="none" xmlns="http://www.w3.org/2000/svg"><path fill-rule="evenodd" clip-rule="evenodd" d="M54.002 16.874l-11.979-.008v-5.284c0-.706.604-1.305 1.32-1.305h10.66c1.857 0 3.357 1.476 3.357 3.29 0 1.836-1.5 3.311-3.358 3.311v-.004zM42.023 2.258l12.034.013c1.686 0 3.053 1.343 3.053 3.001 0 1.65-1.367 2.99-3.053 2.99H43.16a3.61 3.61 0 00-1.137.265v-6.27zM57.13 9.25c1.22-.914 2.025-2.354 2.025-3.987 0-2.76-2.287-5.01-5.103-5.01L39.855.248v18.628h14.147c2.983 0 5.398-2.376 5.398-5.312 0-1.779-.895-3.349-2.27-4.313zm63.045.328a3.46 3.46 0 00-1.291.251l-.042-7.572 11.892-.004c2.062 0 3.732 1.633 3.732 3.661 0 2.027-1.67 3.67-3.732 3.67l-10.58-.008.021.002zm16.623 7.296c-.52.411-1.262.328-1.716-.144l-4.152-5.174c3.103-.094 5.581-2.587 5.581-5.646 0-3.131-2.582-5.663-5.769-5.663h-14.049v18.63h2.17l.042-6.07a1.325 1.325 0 011.312-1.24h7.993l5.19 6.472c1.195 1.386 3.29 1.617 4.748.493l-1.329-1.66-.021.002zm-55.663-.13V11.66c0-.698.603-1.271 1.307-1.284h9.435V8.233h-9.468c-.438.009-.871.1-1.274.27V2.379h15.402V.247h-17.59v18.628h18.228v-2.13h-16.04v-.001zM18.215.292v10.852c0 3.713-1.824 5.908-7.305 5.908-5.496 0-7.33-2.194-7.33-5.908V3.516C3.51 1.708 2 .256.148.256V2.36c.671 0 1.205.512 1.269 1.155v8.37c0 4.301 3.436 7.359 9.493 7.359 6.048 0 9.47-3.058 9.47-7.36V.293h-2.165V.292z" fill="#B9B9B9"/></svg>